@startuml

'https://plantuml.com/class-diagram
'___________STYLES___________
title UML - Sistema para un servicio de vacunación
skinparam classAttributeIconSize 0
skinparam backgroundColor White
skinparam RoundCorner 10
skinparam Shadowing true

skinparam class {
    ArrowColor Black
    BackgroundColor White
    HeaderBackgroundColor Gray
    BorderColor Black
    FontColor White
    FontSize 14
    AttributeFontSize 12
}

skinparam object{
    ArrowColor Black
    BackgroundColor White
    BorderColor Black
    FontColor Black
    FontSize 14
    AttributeFontSize 12
}

skinparam note {
    BackgroundColor LightYellow
    BorderColor Black
}

'___________UML___________

interface IServicioDeVacunación {
+ vacunar(String dni, LocalDate fechaProgramada)
}

class ServicioDeVacunación {
+ vacunar(String dni, LocalDate fechaProgramada)
}

class ProxyServicioDeVacunación {
+ vacunar(String dni, LocalDate fechaProgramada)
+ validarFecha(LocalDate fechaProgramada): boolean
}

object cliente {
}

cliente -> IServicioDeVacunación
IServicioDeVacunación <|.. ProxyServicioDeVacunación
IServicioDeVacunación <|.. ServicioDeVacunación
ProxyServicioDeVacunación .> ServicioDeVacunación

@enduml